# xmcd
#
# Track frame offsets:
#	150
#	20179
#	42994
#	61335
#	78986
#	103130
#	129009
#	150655
#	164049
#	187489
#	211000
#
# Disc length: 3103 seconds
#
# Revision: 0
# Processed by: cddbd v1.4PL0 Copyright (c) Steve Scherf et al.
# Submitted via: dBpowerAMP V4.0
#
DISCID=970c1d0b
DTITLE=RAULIN RODRIGUEZ - LO NUEVO
DYEAR=2004
DGENRE=BACHATA
TTITLE0=TONTO AMOR
TTITLE1=BUENA QUE ´TA
TTITLE2=AMOR DE MADRUGADA
TTITLE3=QUE SERA DE TI
TTITLE4=QUIERO SABER QUE PASA
TTITLE5=PERDIDO POR TI
TTITLE6=QUIERO DORMIR CANSADO
TTITLE7=ME MORIRE DE AMOR
TTITLE8=AMOR DE MI VIDA (versión #1)
TTITLE9=AMOR DE MI VIDA (versión #2)
TTITLE10=DIMELO MUJER
EXTD=
EXTT0=
EXTT1=
EXTT2=
EXTT3=
EXTT4=
EXTT5=
EXTT6=
EXTT7=
EXTT8=
EXTT9=
EXTT10=
PLAYORDER=
